<svg version="1.1" xmlns="http://www.w3.org/2000/svg" viewBox="-13.5 -221.0 1352.6 983.6">
<rect x="-13.5" y="-221.0" width="1352.6" height="983.6" fill="#202124" />
<polyline points="583.3 187.2,565.3 189.2,560.3 191.2,554.3 192.2,550.3 194.2,547.3 194.2,542.3 197.2,538.3 198.2,534.3 201.2,531.3 202.2,527.3 204.2,524.3 207.2,520.3 208.2,515.3 212.2,511.3 216.2,506.3 219.2,503.3 223.2,498.3 229.2,496.3 231.2,490.3 236.2,486.3 240.2,481.3 246.2,477.3 249.2,472.3 253.2,468.3 258.2,463.3 263.2,459.3 269.2,456.3 274.2,454.3 278.2,452.3 283.2,446.3 299.2,444.3 305.2,441.3 311.2,440.3 317.2,437.3 325.2,437.3 331.2,435.3 341.2,435.3 351.2,434.3 370.2,434.3 381.2,437.3 422.2,439.3 429.2,441.3 432.2,443.3 439.2,445.3 442.2,448.3 448.2,451.3 452.2,455.3 457.2,459.3 461.2,474.3 480.2,479.3 484.2,486.3 490.2,494.3 494.2,500.3 499.2,512.3 506.2,520.3 510.2,531.3 515.2,542.3 521.2,556.3 528.2,567.3 532.2,594.3 541.2,611.3 546.2,622.3 550.2,635.3 553.2,646.3 555.2,665.3 559.2,675.3 560.2,689.3 560.2,727.3 559.2,735.3 554.2,740.3 552.2,749.3 547.2,757.3 544.2,769.3 537.2,775.3 534.2,786.3 529.2,792.3 525.2,807.3 514.2,819.3 504.2,827.3 497.2,831.3 492.2,835.3 488.2,841.3 481.2,845.3 475.2,850.3 468.2,852.3 463.2,859.3 451.2,862.3 445.2,865.3 436.2,867.3 431.2,869.3 424.2,871.3 416.2,872.3 410.2,872.3 404.2,874.3 395.2,874.3 390.2,875.3 380.2,875.3 374.2,877.3 366.2,877.3 358.2,872.3 309.2,871.3 302.2,870.3 296.2,868.3 290.2,866.3 286.2,863.3 279.2,862.3 276.2,858.3 268.2,857.3 265.2,851.3 258.2,848.3 254.2,846.3 250.2,840.3 243.2,836.3 239.2,830.3 231.2,824.3 227.2,817.3 221.2,811.3 218.2,804.3 215.2,798.3 211.2,791.3 207.2,785.3 205.2,780.3 201.2,777.3 200.2,772.3 198.2,768.3 195.2,763.3 193.2,751.3 189.2,747.3 188.2,742.3 186.2,735.3 183.2,731.3 182.2,723.3 181.2,719.3 181.2,715.3 180.2,708.3 179.2,706.3 178.2,703.3 178.2,666.3 180.2,663.3 180.2,652.3 181.2,649.3 181.2,638.3 182.2,635.3 183.2,631.3 184.2,627.3 184.2,622.3 186.2,618.3 186.2,594.3 187.2,589.3 187.2,580.3 187.2" style="fill:none;stroke:#ffffff;stroke-width:2"/>
<polyline points="659.3 183.2,657.3 194.2,657.3 201.2,656.3 214.2,656.3 221.2,654.3 231.2,654.3 234.2,653.3 278.2,653.3 283.2,652.3 290.2,652.3 295.2,650.3 304.2,650.3 308.2,653.3 397.2,653.3 401.2,654.3 501.2,652.3 555.2,652.3 559.2,652.3 563.2" style="fill:none;stroke:#ffffff;stroke-width:2"/>
<polyline points="439.3 357.2,458.3 357.2,480.3 356.2,488.3 356.2,597.3 356.2,616.3 358.2,619.3 358.2,637.3 359.2,640.3 359.2,655.3 361.2,658.3 361.2,675.3 362.2,679.3 362.2,702.3 363.2,707.3 363.2,800.3 365.2,805.3 365.2,821.3 366.2,825.3 366.2,865.3 367.2,869.3 367.2,872.3 368.2,876.3 368.2" style="fill:none;stroke:#ffffff;stroke-width:2"/>
<polyline points="879.3 370.2,882.3 370.2,903.3 369.2,915.3 369.2,926.3 371.2,929.3 371.2,960.3 368.2,963.3 368.2,1065.3 368.2,1082.3 368.2" style="fill:none;stroke:#ffffff;stroke-width:2"/>
<polyline points="450.3 354.2,446.3 353.2,438.3 352.2,434.3 352.2,329.3 352.2,304.3 352.2,301.3 352.2" style="fill:none;stroke:#ffffff;stroke-width:2"/>
<polyline points="656.3 191.2,655.3 185.2,654.3 181.2,653.3 178.2,653.3 173.2,651.3 168.2,650.3 161.2,649.3 155.2,647.3 147.2,645.3 129.2,642.3 113.2,642.3 107.2,641.3 100.2,641.3 93.2,639.3 86.2,639.3 81.2,638.3 66.2,638.3 62.2,638.3 60.2" style="fill:none;stroke:#ffffff;stroke-width:2"/>
<polyline points="657.3 552.2,655.3 559.2,655.3 565.2,656.3 600.2,657.3 605.2,657.3 614.2,658.3 628.2,658.3 632.2,658.3 668.2" style="fill:none;stroke:#ffffff;stroke-width:2"/>
<polyline points="615.3 557.2,621.3 557.2,666.3 560.2,673.3 560.2,690.3 562.2,693.3 563.2,697.3 563.2,699.3 564.2,703.3 565.2,707.3 565.2" style="fill:none;stroke:#ffffff;stroke-width:2"/>
<polyline points="686.3 595.2,699.3 596.2,703.3 596.2,705.3 596.2,706.3 597.2" style="fill:none;stroke:#ffffff;stroke-width:2"/>
<polyline points="749.3 619.2,747.3 617.2,745.3 612.2,745.3 607.2,747.3 584.2,748.3 581.2,747.3 584.2,745.3 586.2,744.3 588.2,741.3 591.2,736.3 594.2,733.3 594.2,729.3 595.2,727.3 595.2" style="fill:none;stroke:#ffffff;stroke-width:2"/>
<polyline points="729.3 622.2,732.3 622.2,782.3 623.2,783.3 624.2" style="fill:none;stroke:#ffffff;stroke-width:2"/>
<polyline points="690.3 159.2,689.3 155.2,688.3 150.2,688.3 139.2,689.3 135.2,690.3 130.2,692.3 127.2,693.3 125.2,695.3 119.2,695.3 116.2,694.3 119.2,693.3 121.2,691.3 124.2,687.3 128.2,686.3 130.2,682.3 132.2,679.3 134.2,677.3 135.2,676.3 137.2,675.3 138.2" style="fill:none;stroke:#ffffff;stroke-width:2"/>
<polyline points="683.3 162.2,686.3 161.2,692.3 160.2,696.3 160.2,708.3 161.2,709.3 162.2" style="fill:none;stroke:#ffffff;stroke-width:2"/>
<polyline points="920.3 343.2,920.3 339.2,921.3 324.2,921.3 321.2,923.3 317.2,923.3 314.2,924.3 310.2,922.3 311.2,920.3 313.2,919.3 315.2,917.3 318.2,915.3 319.2,913.3 321.2,908.3 325.2,906.3 327.2,902.3 329.2,899.3 330.2,897.3 330.2" style="fill:none;stroke:#ffffff;stroke-width:2"/>
<polyline points="908.3 346.2,921.3 345.2,928.3 347.2,933.3 348.2,935.3 348.2,937.3 348.2" style="fill:none;stroke:#ffffff;stroke-width:2"/>
<polyline points="356.3 323.2,358.3 323.2,360.3 323.2,362.3 323.2,364.3 323.2,366.3 324.2,367.3 325.2" style="fill:none;stroke:#ffffff;stroke-width:2"/>
<polyline points="396.3 331.2,397.3 326.2,398.3 319.2,399.3 314.2,402.3 309.2,402.3 305.2,403.3 302.2,404.3 298.2,405.3 295.2,407.3 294.2,403.3 296.2,398.3 299.2,396.3 300.2,393.3 301.2,391.3 302.2,387.3 303.2,385.3 304.2,380.3 305.2,379.3 306.2" style="fill:none;stroke:#ffffff;stroke-width:2"/>
<polyline points="385.3 334.2,388.3 334.2,405.3 334.2,407.3 334.2,409.3 334.2" style="fill:none;stroke:#ffffff;stroke-width:2"/>
<polyline points="650.3 361.2,650.3 362.7,649.6 361.9" style="fill:none;stroke:#ffffff;stroke-width:2"/>
<polyline points="530.3 225.2,537.3 221.2,540.3 220.2,545.3 219.2,548.3 218.2,555.3 215.2,562.3 215.2,571.3 214.2,578.3 214.2,587.3 212.2,597.3 212.2,613.3 211.2,612.3 215.2,610.3 217.2,609.3 219.2,606.3 221.2,604.3 224.2,598.3 228.2,593.3 232.2,583.3 238.2,575.3 243.2,566.3 249.2,477.3 308.2,473.3 312.2,468.3 320.2,471.3 322.2,476.3 320.2,482.3 319.2,490.3 317.2,501.3 314.2,510.3 312.2,519.3 309.2,536.3 306.2,552.3 302.2,566.3 298.2,596.3 288.2,603.3 285.2,607.3 284.2,612.3 282.2,614.3 281.2,611.3 283.2,609.3 284.2,604.3 286.2,600.3 290.2,593.3 294.2,585.3 299.2,573.3 306.2,562.3 311.2,545.3 321.2,534.3 326.2,522.3 333.2,514.3 338.2,506.3 344.2,500.3 348.2,496.3 352.2,491.3 356.2,487.3 360.2,482.3 364.2,478.3 368.2,474.3 370.2,473.3 372.2,475.3 373.2,484.3 369.2,487.3 368.2,499.3 363.2,506.3 362.2,520.3 358.2,547.3 351.2,560.3 349.2,589.3 346.2,592.3 346.2,594.3 348.2,593.3 350.2,591.3 351.2,589.3 354.2,586.3 357.2,581.3 360.2,577.3 363.2,570.3 367.2,564.3 372.2,555.3 378.2,546.3 383.2,537.3 391.2,532.3 395.2,527.3 401.2,525.3 403.2,523.3 406.2,521.3 408.2,520.3 411.2,522.3 409.2,526.3 408.2,534.3 407.2,540.3 406.2,548.3 406.2,556.3 404.2,567.3 404.2,593.3 405.2,592.3 409.2,589.3 411.2,585.3 412.2,580.3 416.2,573.3 417.2,562.3 422.2,551.3 424.2,537.3 429.2,527.3 432.2,516.3 436.2,505.3 439.2,501.3 440.2,498.3 442.2,507.3 442.2,559.3 444.2,569.3 444.2,580.3 445.2,586.3 445.2,590.3 446.2,592.3 447.2,596.3 448.2,601.3 450.2,598.3 454.2,595.3 456.2,591.3 457.2,586.3 459.2,579.3 461.2,570.3 464.2,562.3 465.2,557.3 468.2,552.3 470.2,547.3 471.2,545.3 472.2,542.3 474.2,545.3 475.2,550.3 475.2,558.3 476.2,563.3 476.2,596.3 478.2,600.3 479.2,601.3 482.2,599.3 484.2,596.3 485.2,593.3 487.2,590.3 490.2,586.3 491.2,584.3 493.2,582.3 497.2,584.3 498.2,589.3 499.2,592.3 499.2,602.3 500.2,606.3 500.2,608.3 501.2,610.3 504.2,605.3 506.2,601.3 506.2,599.3 506.2" style="fill:none;stroke:#ff5959;stroke-width:2"/>
<polyline points="687.3 205.2,692.3 205.2,696.3 204.2,700.3 204.2,712.3 205.2,719.3 205.2,735.3 207.2,740.3 207.2,747.3 208.2,751.3 208.2,748.3 210.2,746.3 211.2,743.3 212.2,738.3 214.2,734.3 215.2,730.3 217.2,726.3 220.2,720.3 222.2,705.3 228.2,698.3 232.2,692.3 235.2,687.3 239.2,684.3 240.2,687.3 242.2,690.3 242.2,704.3 241.2,711.3 241.2,732.3 239.2,745.3 239.2,791.3 240.2,790.3 242.2,787.3 243.2,785.3 244.2,782.3 245.2,778.3 248.2,770.3 251.2,762.3 252.2,748.3 255.2,738.3 259.2,718.3 261.2,705.3 264.2,691.3 268.2,683.3 271.2,677.3 274.2,674.3 276.2,676.3 277.2,682.3 277.2,784.3 277.2,804.3 279.2,799.3 281.2,795.3 282.2,790.3 285.2,785.3 286.2,776.3 291.2,769.3 292.2,757.3 294.2,747.3 297.2,736.3 299.2,726.3 300.2,718.3 300.2,709.3 303.2,704.3 305.2,699.3 306.2,695.3 307.2,693.3 308.2,696.3 309.2,704.3 310.2,711.3 310.2,792.3 312.2,796.3 313.2,799.3 315.2,796.3 316.2,774.3 322.2,768.3 323.2,752.3 325.2,739.3 327.2,723.3 328.2,712.3 330.2,691.3 335.2,688.3 336.2,686.3 337.2,691.3 340.2,694.3 340.2,796.3 342.2,803.3 342.2,806.3 343.2,810.3 344.2,812.3 345.2,813.3 348.2,812.3 350.2,810.3 351.2,799.3 355.2,792.3 356.2,778.3 359.2,729.3 368.2,719.3 372.2,716.3 373.2,718.3 374.2,722.3 375.2,726.3 375.2,734.3 376.2,740.3 376.2,753.3 378.2,770.3 381.2,777.3 381.2,788.3 382.2,796.3 384.2,803.3 385.2,806.3 385.2,808.3 386.2,806.3 388.2,801.3 390.2,794.3 391.2,780.3 394.2,765.3 396.2,748.3 400.2,734.3 402.2,718.3 406.2,710.3 407.2,703.3 408.2,700.3 408.2,706.3 409.2,716.3 409.2,738.3 411.2,746.3 411.2,751.3 412.2,760.3 414.2,763.3 415.2,770.3 416.2,774.3 418.2,777.3 419.2,779.3 420.2,776.3 422.2,773.3 423.2,762.3 423.2,752.3 425.2,736.3 425.2,691.3 427.2,682.3 427.2,679.3 428.2,684.3 430.2,690.3 432.2,703.3 433.2,710.3 433.2,719.3 435.2,726.3 435.2,735.3 436.2,741.3 436.2,749.3 438.2,756.3 438.2,763.3 439.2,767.3 440.2,770.3 440.2,773.3 441.2,771.3 442.2,765.3 443.2,757.3 443.2,744.3 445.2,731.3 445.2,694.3 447.2,687.3 447.2,678.3 448.2,674.3 450.2,674.3 454.2,676.3 455.2,680.3 456.2,685.3 458.2,699.3 460.2,715.3 461.2,722.3 463.2,731.3 463.2,747.3 464.2,753.3 466.2,758.3 467.2,761.3 468.2,763.3 469.2,759.3 472.2,755.3 473.2,745.3 475.2,737.3 476.2,724.3 478.2,716.3 478.2,700.3 480.2,695.3 480.2,692.3 483.2,697.3 484.2,700.3 486.2,705.3 487.2,711.3 489.2,719.3 492.2,727.3 492.2,734.3 493.2,739.3 494.2,746.3 496.2,751.3 497.2,759.3 500.2,763.3 501.2,765.3 502.2,761.3 503.2,752.3 503.2,739.3 505.2,716.3 505.2,678.3 506.2,675.3 506.2,672.3 507.2,672.3 510.2,674.3 511.2,677.3 513.2,680.3 513.2,687.3 514.2,694.3 514.2,705.3 515.2,711.3 515.2,718.3 517.2,721.3 517.2,723.3 518.2,722.3 520.2,719.3 520.2,717.3 521.2,713.3 522.2,708.3 522.2,703.3 523.2,700.3 525.2,698.3 528.2,698.3 533.2,700.3 535.2,702.3 536.2,707.3 537.2" style="fill:none;stroke:#61ff6f;stroke-width:2"/>
<polyline points="864.3 142.2,865.3 140.2,867.3 139.2,869.3 136.2,871.3 131.2,872.3 126.2,872.3 122.2,871.3 116.2,870.3 111.2,866.3 107.2,865.3 104.2,863.3 102.2,866.3 103.2,868.3 104.2,873.3 107.2,876.3 107.2,879.3 108.2,883.3 109.2,886.3 109.2,899.3 108.2,901.3 106.2" style="fill:none;stroke:#ffffff;stroke-width:2"/>
<polyline points="670.3 73.2,667.3 65.2,667.3 62.2,668.3 35.2,671.3 31.2,676.3 22.2,680.3 19.2,681.3 15.2,684.3 12.2,687.3 11.2,689.3 8.2,691.3 6.2,694.3 4.2,698.3 4.2,701.3 3.2" style="fill:none;stroke:#ffffff;stroke-width:2"/>
<polyline points="731.3 38.2,732.3 26.2,733.3 22.2,733.3 19.2,734.3 18.2,735.3 16.2,736.3 15.2" style="fill:none;stroke:#ffffff;stroke-width:2"/>
<polyline points="753.3 37.2,753.3 34.2,754.3 32.2,754.3 29.2,755.3 27.2,756.3 22.2" style="fill:none;stroke:#ffffff;stroke-width:2"/>
<polyline points="728.3 7.2,732.3 8.2,735.3 9.2,740.3 10.2,746.3 12.2,750.3 13.2,753.3 14.2,758.3 16.2,761.3 16.2,764.3 17.2,768.3 17.2,771.3 18.2" style="fill:none;stroke:#ffffff;stroke-width:2"/>
<polyline points="714.3 50.2,717.3 50.2,727.3 52.2,730.3 52.2,749.3 53.2,755.3 53.2,759.3 54.2,763.3 54.2,778.3 55.2,782.3 55.2,784.3 56.2" style="fill:none;stroke:#ffffff;stroke-width:2"/>
<polyline points="744.3 89.2,742.3 86.2,740.3 84.2,739.3 82.2,735.3 80.2,730.3 78.2,728.3 77.2,724.3 76.2" style="fill:none;stroke:#ffffff;stroke-width:2"/>
<polyline points="726.3 76.2,738.3 75.2,740.3 74.2,743.3 74.2,745.3 73.2,748.3 70.2,749.3 67.2,750.3 65.2,749.3 62.2,745.3 62.2,742.3 63.2,740.3 65.2,740.3 68.2,743.3 70.2,747.3 70.2" style="fill:none;stroke:#ffffff;stroke-width:2"/>
<polyline points="771.3 106.2,775.3 104.2,780.3 101.2,784.3 100.2,786.3 98.2,791.3 95.2,793.3 93.2,803.3 80.2,805.3 77.2,807.3 72.2,808.3 68.2,811.3 60.2,812.3 55.2,813.3 52.2,814.3 48.2,815.3 46.2,815.3 42.2,814.3 32.2,813.3 28.2,811.3 25.2,810.3 23.2,809.3 19.2,808.3 16.2,807.3 15.2" style="fill:none;stroke:#ffffff;stroke-width:2"/>
<polyline points="700.3 720.2,699.3 718.2,699.3 715.2,698.3 713.2,697.3 709.2,696.3 706.2,693.3 699.2,693.3 695.2,695.3 676.2,696.3 672.2,698.3 667.2,699.3 664.2,701.3 660.2,702.3 657.2,704.3 653.2,707.3 646.2,708.3 644.2" style="fill:none;stroke:#5784ff;stroke-width:2"/>
<polyline points="713.3 691.2,715.3 691.2,717.3 691.2,720.3 691.2,722.3 691.2,724.3 691.2" style="fill:none;stroke:#5784ff;stroke-width:2"/>
<polyline points="743.3 692.2,746.3 692.2,784.3 692.2,786.3 692.2,788.3 692.2" style="fill:none;stroke:#5784ff;stroke-width:2"/>
<polyline points="747.3 679.2,747.3 676.2,747.3 661.2,747.3 659.2" style="fill:none;stroke:#5784ff;stroke-width:2"/>
<polyline points="769.3 679.2,769.3 664.2,769.3 662.2,769.3 660.2,769.3 658.2,769.3 656.2" style="fill:none;stroke:#5784ff;stroke-width:2"/>
<polyline points="745.3 656.2,748.3 656.2,754.3 655.2,758.3 655.2,775.3 655.2,777.3 654.2,779.3 654.2" style="fill:none;stroke:#5784ff;stroke-width:2"/>
<polyline points="771.3 736.2,770.3 734.2,766.3 733.2,763.3 731.2,756.3 726.2,749.3 726.2,753.3 726.2,760.3 725.2,764.3 723.2,766.3 721.2,767.3 718.2,768.3 716.2,768.3 712.2,767.3 709.2,764.3 710.2,764.3 713.2,766.3 715.2,769.3 716.2" style="fill:none;stroke:#5784ff;stroke-width:2"/>
<polyline points="792.3 648.2,794.3 649.2,796.3 651.2,800.3 653.2,801.3 655.2,805.3 658.2,807.3 661.2,808.3 663.2,810.3 669.2,811.3 671.2,812.3 675.2,812.3 679.2,811.3 698.2,811.3 702.2,810.3 711.2,810.3 714.2,809.3 716.2,808.3 721.2,808.3 725.2,807.3 728.2,806.3 730.2,803.3 735.2,802.3 738.2,801.3 739.2" style="fill:none;stroke:#5784ff;stroke-width:2"/>
<polyline points="607.2 32.6,589.2 34.6,586.2 34.6,584.2 35.6,581.2 35.6,577.2 36.6,572.2 37.6,568.2 38.6,565.2 39.6,562.2 41.6,558.2 42.6,555.2 43.6,551.2 44.6,548.2 45.6,544.2 48.6,541.2 49.6,537.2 50.6,534.2 52.6,528.2 53.6,526.2 54.6,524.2 57.6,522.2 58.6,515.2 61.6,512.2 62.6,510.2 64.6,506.2 66.6,503.2 67.6,501.2 68.6,499.2 71.6,496.2 72.6,493.2 74.6,491.2 75.6,489.2 77.6,484.2 81.6,481.2 83.6,479.2 84.6,477.2 87.6,476.2 89.6,473.2 91.6,470.2 94.6,468.2 97.6,464.2 100.6,462.2 102.6,453.2 110.6,450.2 113.6,447.2 115.6,441.2 121.6,437.2 123.6,435.2 126.6,431.2 128.6,429.2 130.6,417.2 141.6,416.2 143.6,414.2 144.6,413.2 146.6,410.2 150.6,407.2 153.6,406.2 155.6,404.2 157.6,401.2 162.6,398.2 166.6,397.2 168.6,394.2 170.6,393.2 173.6,391.2 175.6,389.2 178.6,387.2 180.6,385.2 184.6,384.2 187.6,383.2 189.6,382.2 192.6,379.2 197.6,378.2 200.6,375.2 206.6,374.2 209.6,373.2 213.6,371.2 215.6,370.2 217.6,369.2 222.6,369.2 225.6,368.2 227.6,368.2 231.6,367.2 234.6,366.2 240.6,365.2 243.6,365.2 247.6,364.2 250.6,363.2 254.6,362.2 257.6,360.2 261.6,359.2 264.6,358.2 268.6,357.2 271.6,357.2 274.6,355.2 277.6,355.2 273.6,354.2 269.6,354.2 265.6,353.2 261.6,353.2 257.6,352.2 254.6,352.2 250.6,353.2 253.6,353.2 256.6,354.2 259.6,354.2 264.6,355.2 273.6,356.2 276.6,360.2 274.6,362.2 272.6,366.2 271.6,369.2 269.6,374.2 266.6,376.2 265.6,380.2 265.6" style="fill:none;stroke:#ffffff;stroke-width:2"/>
<polyline points="238.2 326.6,235.2 322.6,233.2 317.6,232.2 315.6,230.2 312.6,230.2 309.6,229.2 306.6,229.2 303.6,230.2 291.6,231.2 288.6,235.2 284.6,236.2 282.6,241.2 275.6,244.2 274.6,247.2 272.6,249.2 271.6,253.2 270.6,254.2 269.6" style="fill:none;stroke:#ffffff;stroke-width:2"/>
<polyline points="262.2 315.6,263.2 303.6,263.2 301.6,264.2 299.6,264.2 297.6,266.2 296.6" style="fill:none;stroke:#ffffff;stroke-width:2"/>
<polyline points="283.2 315.6,284.2 307.6,284.2 303.6,285.2 301.6,286.2 293.6" style="fill:none;stroke:#ffffff;stroke-width:2"/>
<polyline points="253.2 290.6,256.2 290.6,291.2 290.6,293.2 290.6" style="fill:none;stroke:#ffffff;stroke-width:2"/>
<polyline points="299.2 266.6,302.2 268.6,310.2 272.6,313.2 276.6,315.2 279.6,316.2 283.6,318.2 285.6,318.2 289.6,319.2 292.6,319.2 295.6,318.2 306.6,318.2 309.6,317.2 312.6,315.2 315.6,314.2 318.6,314.2 320.6" style="fill:none;stroke:#ffffff;stroke-width:2"/>
<polyline points="998.8 373.4,998.8 375.6,997.7 409.7,997.7 414.1,996.6 431.7,996.6 436.1,995.5 438.3,995.5 441.6,994.4 452.6,994.4 457.0,992.2 460.3,992.2 465.8,991.1 472.4,991.1 474.6,990.0 485.6,990.0 488.9,988.9 492.2,988.9 494.4,987.8 496.6,987.8 498.8,986.7 502.1,986.7 505.4,985.6 507.6,985.6 509.8,983.4 514.2,982.3 517.5,979.0 520.8,976.8 524.1,975.7 527.4,973.5 529.6,971.3 532.9,968.0 538.4,966.9 542.8,964.7 545.0,962.5 548.3,961.4 550.5,959.2 553.8,957.0 556.0,955.9 559.3,952.6 561.5,950.4 563.7,949.3 565.9,948.2 569.2,947.1 571.4,944.9 572.5,944.9 574.7,942.7 575.8,940.5 578.0,939.4 580.2,936.1 583.5,928.4 590.1,927.3 592.3,925.1 594.5,911.9 605.5,909.7 606.6,906.4 609.9,904.2 611.0,902.0 613.2,899.8 614.3,894.3 616.5,892.1 619.8,889.9 620.9,885.5 624.2,883.3 625.3,878.9 628.6,875.6 630.8,871.2 633.0,869.0 635.2,865.7 637.4,861.3 640.7,859.1 641.8,851.4 646.2,847.0 648.4,843.7 650.6,841.5 651.7,839.3 653.9,837.1 657.2,838.2 653.9,839.3 651.7,839.3 649.5,841.5 645.1,841.5 642.9,842.6 639.6,842.6 637.4,843.7 635.2,844.8 631.9,844.8 629.7,843.7 635.2,842.6 638.5,841.5 640.7,840.4 645.1,839.3 648.4,838.2 650.6,838.2 652.8,837.1 661.6,837.1 663.8,839.3 663.8,844.8 664.9,848.1 664.9,854.7 666.0,856.9 666.0,859.1 667.1,861.3 667.1,864.6 668.2,867.9 669.3" style="fill:none;stroke:#5784ff;stroke-width:2"/>
<polyline points="641.3 733.1,638.0 734.2,623.7 734.2,606.1 732.0,599.5 730.9,590.7 728.7,586.3 728.7,579.7 727.6,576.4 727.6,546.7 725.4,540.1 725.4,530.2 724.3,509.3 718.8,500.5 717.7,485.1 712.2,476.3 710.0,464.2 706.7,455.4 703.4,447.7 701.2,440.0 700.1,434.5 696.8,430.1 695.7,426.8 692.4,421.3 691.3,416.9 690.2,411.4 688.0,408.1 685.8,400.4 682.5,396.0 681.4,387.2 678.1,382.8 677.0,375.1 673.7,369.6 671.5,361.9 669.3,357.5 667.1,349.8 663.8,343.2 660.5,335.5 657.2,332.2 655.0,324.5 653.9,317.9 648.4,313.5 646.2,302.5 638.5,297.0 635.2,290.4 631.9,284.9 628.6,281.6 625.3,276.1 620.9,273.9 618.7,265.1 608.8,264.0 606.6,260.7 603.3,258.5 600.0,255.2 595.6,251.9 593.4,248.6 590.1,243.1 585.7,240.9 583.5,233.2 576.9,228.8 572.5,224.4 567.0,222.2 564.8,218.9 559.3,217.8 557.1,214.5 552.7,213.4 549.4,211.2 545.0,209.0 537.3,207.9 535.1,204.6 525.2,203.5 519.7,203.5 517.5,202.4 513.1,202.4 509.8,201.3 505.4,201.3 503.2,200.2 498.8,200.2 495.5,199.1 492.2,199.1 490.0,198.0 483.4,198.0 479.0,195.8 471.3,195.8 468.0,194.7 458.1,194.7 455.9,195.8 399.8,195.8 396.5,196.9 393.2,196.9 389.9,198.0 386.6,198.0 384.4,199.1 381.1,199.1 378.9,200.2 374.5,200.2 372.3,198.0 375.6,198.0 377.8,195.8 380.0,194.7 383.3,193.6 385.5,193.6 387.7,192.5 389.9,188.1 397.6,190.3 394.3,192.5 392.1,194.7 388.8,198.0 382.2,200.2 380.0,200.2 377.8,202.4 373.4,203.5 370.1,205.7 367.9,213.4 374.5,215.6 376.7,222.2 382.2,224.4 383.3,228.8 387.7,231.0 388.8" style="fill:none;stroke:#5784ff;stroke-width:2"/>
<polyline points="67.1 301.9,70.4 301.9,89.1 301.9,92.4 301.9,95.7 301.9,97.9 301.9,100.1 301.9" style="fill:none;stroke:#5784ff;stroke-width:2"/>
<polyline points="114.4 315.1,114.4 312.9,115.5 306.3,115.5 299.7,116.6 294.2,116.6 290.9,117.7 284.3,118.8 283.2" style="fill:none;stroke:#5784ff;stroke-width:2"/>
<polyline points="141.9 325.0,141.9 322.8,143.0 318.4,143.0 316.2,141.9 299.7,141.9 296.4,140.8 289.8,140.8 287.6,140.8 283.2" style="fill:none;stroke:#5784ff;stroke-width:2"/>
<polyline points="104.5 272.2,108.9 272.2,117.7 274.4,122.1 274.4,126.5 275.5,130.9 275.5,134.2 276.6,136.4 276.6,143.0 277.7,145.2 277.7,152.9 278.8,155.1 278.8,157.3 278.8" style="fill:none;stroke:#5784ff;stroke-width:2"/>
<polyline points="172.7 350.3,172.7 348.1,173.8 344.8,174.9 342.6,176.0 339.3,177.1 337.1,178.2 332.7,181.5 322.8,182.6 314.0,183.7 308.5,183.7 305.2,182.6 285.4,181.5 279.9,181.5 276.6,178.2 271.1,177.1 267.8,176.0 263.4,174.9 260.1,172.7 254.6,171.6 252.4,169.4 250.2,167.2 248.0" style="fill:none;stroke:#5784ff;stroke-width:2"/>
<polyline points="33.0 333.8,33.0 331.6,30.8 328.3,29.7 323.9,26.4 319.5,25.3 315.1,23.1 309.6,22.0 305.2,19.8 300.8,18.7 294.2,18.7 290.9,19.8 274.4,23.1 270.0,26.4 264.5,27.5 262.3,31.9 257.9,39.6 251.3,42.9 250.2,46.2 248.0,48.4 245.8,50.6 245.8,51.7 244.7" style="fill:none;stroke:#5784ff;stroke-width:2"/>
<polyline points="194.7 195.2,195.8 191.9,195.8 189.7,196.9 187.5,198.0 182.0,198.0 178.7,200.2 174.3,202.4 171.0,203.5 165.5,207.9 152.3,209.0 146.8,212.3 139.1,213.4 134.7,216.7 127.0,217.8 121.5,221.1 116.0,224.4 109.4,228.8 98.4,233.2 90.7,234.3 86.3,237.6 79.7,242.0 74.2,246.4 67.6,250.8 59.9,254.1 55.5,260.7 50.0,262.9 45.6,267.3 40.1,270.6 35.7,275.0 30.2,278.3 26.9,290.4 15.9,293.7 13.7,298.1 9.3,301.4 7.1,304.7 3.8,308.0 1.6,312.4 -1.7,315.7 -3.9,320.1 -5.0,325.6 -9.4,328.9 -10.5,335.5 -14.9,341.0 -17.1,353.1 -22.6,357.5 -24.8,361.9 -24.8,365.2 -28.1,369.6 -29.2,372.9 -30.3,377.3 -31.4,380.6 -34.7,386.1 -35.8,390.5 -38.0,396.0 -40.2,401.5 -41.3,410.3 -43.5,415.8 -46.8,420.2 -46.8,424.6 -47.9,427.9 -49.0,432.3 -50.1,441.1 -53.4,445.5 -54.5,448.8 -55.6,453.2 -56.7,456.5 -57.8,459.8 -57.8,463.1 -58.9,466.4 -61.1,469.7 -61.1,471.9 -62.2,476.3 -63.3,478.5 -63.3,480.7 -64.4,484.0 -64.4,486.2 -65.5,490.6 -66.6,493.9 -67.7,497.2 -67.7,501.6 -69.9,506.0 -71.0,514.8 -72.1,519.2 -73.2,522.5 -75.4,528.0 -75.4,539.0 -76.5,544.5 -77.6,552.2 -77.6,556.6 -78.7,563.2 -78.7,566.5 -79.8,572.0 -79.8,575.3 -82.0,580.8 -82.0,584.1 -83.1,591.8 -84.2,597.3 -84.2,602.8 -85.3,606.1 -85.3,611.6 -87.5,613.8 -87.5,622.6 -88.6,624.8 -88.6,628.1 -89.7,627.0 -87.5,624.8 -85.3,622.6 -84.2,621.5 -80.9,619.3 -77.6,618.2 -74.3,620.4 -75.4,622.6 -75.4,625.9 -77.6,628.1 -78.7,631.4 -80.9,634.7 -82.0,636.9 -82.0,636.9 -84.2,635.8 -86.4,634.7 -90.8,633.6 -93.0,630.3 -96.3,629.2 -98.5,628.1 -102.9,627.0 -105.1,625.9 -108.4,623.7 -110.6,622.6 -112.8" style="fill:none;stroke:#5784ff;stroke-width:2"/>
<polyline points="689.1 -168.6,697.1 -174.6,700.1 -175.6,704.1 -176.6,712.1 -175.6,714.1 -174.6,717.1 -171.6,719.1 -168.6,719.1 -164.6,718.1 -161.6,717.1 -159.6,714.1 -156.6,711.1 -154.6,715.1 -154.6,722.1 -153.6,724.1 -151.6,726.1 -147.6,727.1 -144.6,727.1 -140.6,726.1 -136.6,725.1 -134.6,722.1 -132.6,719.1 -131.6,715.1 -131.6,705.1 -130.6,701.1 -130.6,698.1 -131.6,696.1 -132.6" style="fill:none;stroke:#5784ff;stroke-width:2"/>
<polyline points="749.1 -129.6,750.1 -132.6,751.1 -141.6,751.1 -144.6,752.1 -170.6,753.1 -174.6" style="fill:none;stroke:#5784ff;stroke-width:2"/>
<polyline points="774.1 -123.6,775.1 -125.6,775.1 -142.6,775.1 -160.6,775.1 -162.6,775.1 -164.6,775.1 -166.6" style="fill:none;stroke:#5784ff;stroke-width:2"/>
<polyline points="744.1 -183.6,747.1 -181.6,750.1 -180.6,757.1 -179.6,762.1 -177.6,771.1 -176.6,774.1 -176.6,780.1 -175.6,783.1 -173.6,785.1 -172.6,791.1 -170.6,796.1 -169.6,799.1 -168.6" style="fill:none;stroke:#5784ff;stroke-width:2"/>
<polyline points="662.1 -118.6,664.1 -118.6,666.1 -118.6,668.1 -118.6,670.1 -118.6" style="fill:none;stroke:#5784ff;stroke-width:2"/>
<polyline points="688.1 -112.6,713.1 -112.6,721.1 -111.6,724.1 -111.6,731.1 -110.6,734.1 -110.6,739.1 -109.6,743.1 -109.6,767.1 -107.6,771.1 -107.6,787.1 -106.6,790.1 -105.6,794.1 -105.6,797.1 -104.6,800.1 -104.6,803.1 -103.6" style="fill:none;stroke:#5784ff;stroke-width:2"/>
<polyline points="750.1 -63.6,747.1 -67.6,742.1 -71.6,741.1 -73.6,739.1 -74.6,736.1 -76.6,734.1 -78.6,731.1 -79.6,726.1 -80.6,722.1 -80.6,725.1 -80.6,736.1 -81.6,738.1 -82.6,740.1 -84.6,741.1 -86.6,743.1 -88.6,744.1 -90.6,744.1 -93.6,745.1 -95.6,745.1 -99.6,741.1 -99.6,739.1 -97.6,740.1 -95.6,743.1 -94.6,745.1 -93.6" style="fill:none;stroke:#5784ff;stroke-width:2"/>
<polyline points="662.1 -61.6,659.1 -63.6,655.1 -68.6,653.1 -71.6,650.1 -77.6,648.1 -80.6,647.1 -82.6,646.1 -85.6,645.1 -87.6,644.1 -92.6,644.1 -97.6,643.1 -99.6,643.1 -103.6,644.1 -111.6,644.1 -115.6,645.1 -126.6,645.1 -129.6,646.1 -136.6,646.1 -139.6,647.1 -143.6,649.1 -145.6,649.1 -148.6,650.1 -152.6,651.1 -154.6,653.1 -159.6,654.1 -161.6,656.1 -167.6,660.1 -169.6,661.1 -172.6,665.1 -175.6,666.1 -178.6,669.1 -181.6,674.1 -188.6,676.1 -189.6,678.1 -191.6,683.1 -195.6,685.1 -197.6" style="fill:none;stroke:#5784ff;stroke-width:2"/>
<polyline points="823.1 -31.6,824.1 -37.6,826.1 -40.6,827.1 -43.6,828.1 -45.6,829.1 -48.6,830.1 -52.6,833.1 -57.6,833.1 -60.6,835.1 -65.6,837.1 -68.6,838.1 -75.6,839.1 -79.6,842.1 -85.6,843.1 -91.6,845.1 -98.6,846.1 -101.6,847.1 -108.6,847.1 -111.6,846.1 -131.6,845.1 -134.6,843.1 -139.6,842.1 -142.6,841.1 -149.6,839.1 -153.6,836.1 -161.6,835.1 -165.6,832.1 -168.6,831.1 -170.6,829.1 -172.6,828.1 -174.6,826.1 -176.6,822.1 -180.6" style="fill:none;stroke:#5784ff;stroke-width:2"/>
<polyline points="881.6 -55.4,888.3 -50.1,892.3 -47.4,894.9 -46.1,901.6 -42.1,906.9 -39.5,912.2 -38.1,918.9 -32.8,922.9 -28.8,929.5 -26.1,934.9 -22.1,944.2 -16.8,952.2 -14.2,958.8 -11.5,962.8 -7.5,968.1 -6.2,970.8 -4.8,974.8 -3.5,977.4 -0.9,981.4 5.8,984.1 8.5,985.4 11.1,988.1 13.8,989.4 16.5,990.8 20.4,992.1 23.1,994.8 27.1,994.8 29.8,996.1 33.8,997.4 36.4,998.7 41.7,1000.1 44.4,1001.4 48.4,1001.4 53.7,1004.1 57.7,1005.4 61.7,1008.1 71.0,1008.1 75.0,1009.4 80.3,1009.4 83.0,1010.7 87.0,1010.7 92.3,1013.4 99.0,1013.4 103.0,1014.7 109.6,1014.7 112.3,1016.0 118.9,1016.0 122.9,1017.4 129.6,1017.4 133.6,1018.7 140.2,1018.7 142.9,1020.0 145.6,1020.0 148.2,1021.4 152.2,1021.4 154.9,1022.7 158.9,1022.7 161.5,1024.0 170.8,1024.0 173.5,1025.4 178.8,1026.7 188.2,1026.7 190.8,1028.0 196.1,1028.0 198.8,1029.4 208.1,1029.4 212.1,1032.0 217.4,1032.0 220.1,1033.4 226.7,1033.4 229.4,1034.7 236.1,1034.7 238.7,1033.4 289.3,1033.4 294.6,1032.0 302.6,1029.4 300.0,1028.0 296.0,1024.0 286.6,1022.7 282.7,1020.0 280.0,1020.0 277.3,1018.7 273.3,1018.7 277.3,1021.4 281.3,1021.4 284.0,1024.0 289.3,1029.4 298.6,1032.0 301.3,1034.7 305.3,1037.3 305.3,1042.7 302.6,1045.3 302.6,1048.0 301.3,1052.0 297.3,1056.0 296.0,1057.3 293.3,1058.6 289.3,1061.3 285.3" style="fill:none;stroke:#5784ff;stroke-width:2"/>
<polyline points="1089.2 327.4,1084.6 322.0,1082.8 319.2,1081.0 313.8,1079.2 306.5,1077.4 302.9,1076.5 298.3,1075.6 292.0,1075.6 287.4,1076.5 272.9,1078.3 267.4,1080.1 261.1,1081.9 258.3,1084.6 253.8,1086.5 250.1,1089.2 245.6,1091.9 242.0,1093.7 240.1,1096.5 238.3,1098.3 236.5,1100.1 235.6,1103.7 234.7,1106.5 233.8" style="fill:none;stroke:#5784ff;stroke-width:2"/>
<polyline points="1103.7 279.2,1119.2 279.2,1121.0 279.2,1122.8 279.2" style="fill:none;stroke:#5784ff;stroke-width:2"/>
<polyline points="1156.5 301.1,1153.7 297.4,1149.2 291.1,1147.4 286.5,1143.7 284.7,1139.2 282.9,1135.6 282.9,1133.7 284.7,1132.8 287.4,1135.6 288.3,1139.2 287.4,1141.9 286.5,1143.7 285.6,1149.2 281.1,1151.9 279.2,1152.8 277.4,1155.6 273.8,1156.5 272.0,1159.2 267.4,1160.1 263.8,1160.1 260.1,1161.0 256.5,1161.0 252.9,1160.1 244.7,1157.4 243.8,1152.8 243.8,1151.0 244.7,1149.2 246.5,1148.3 251.1,1149.2 254.7,1151.0 256.5,1153.7 258.3,1156.5 258.3,1159.2 259.2,1161.0 259.2" style="fill:none;stroke:#5784ff;stroke-width:2"/>
<polyline points="1172.8 299.2,1173.7 296.5,1174.6 292.9,1175.6 291.1,1176.5 288.3,1177.4 286.5,1178.3 282.9,1180.1 278.3,1181.0 274.7,1182.8 272.0,1182.8 270.1" style="fill:none;stroke:#5784ff;stroke-width:2"/>
<polyline points="1194.6 306.5,1194.6 288.3,1195.6 281.1,1196.5 273.8,1196.5 272.0" style="fill:none;stroke:#5784ff;stroke-width:2"/>
<polyline points="1176.5 263.8,1196.5 263.8,1201.9 264.7,1206.5 265.6" style="fill:none;stroke:#5784ff;stroke-width:2"/>
<polyline points="1211.0 237.4,1213.7 237.4,1215.6 238.3,1223.7 243.8,1225.6 245.6,1226.5 248.3,1228.3 251.1,1229.2 252.9,1231.9 256.5,1233.7 259.2,1234.6 262.9,1235.6 264.7,1238.3 266.5,1239.2 269.2,1239.2 272.0,1240.1 274.7,1240.1 278.3,1239.2 280.1,1236.5 284.7,1235.6 290.1,1234.6 292.0,1233.7 296.5,1232.8 298.3,1231.9 302.0,1230.1 304.7,1229.2 306.5,1225.6 312.9,1224.6 314.7,1222.8 317.4,1221.0 319.2,1216.5 325.6,1214.6 327.4,1213.7 329.2,1212.8 332.9" style="fill:none;stroke:#5784ff;stroke-width:2"/>
<polyline points="1001.3 363.7,1001.3 361.2,998.8 343.1,998.8 339.5,997.6 334.6,997.6 332.2,996.4 324.9,996.4 322.5,995.2 310.4,994.0 305.6,992.8 301.9,992.8 299.5,991.6 294.7,991.6 292.3,990.4 287.4,987.9 281.4,986.7 279.0,986.7 276.5,985.5 274.1,985.5 271.7,984.3 269.3,983.1 265.6,980.7 263.2,980.7 260.8,979.5 258.4,978.3 253.5,977.1 251.1,974.6 245.1,973.4 242.7,968.6 235.4,967.4 233.0,966.2 228.1,965.0 225.7,961.3 223.3,960.1 220.9,958.9 216.0,957.7 213.6,955.3 210.0,951.6 203.9,949.2 200.3,948.0 197.9,942.0 184.6,939.5 180.9,939.5 178.5,938.3 176.1,935.9 172.5,932.3 165.2,929.9 161.6,928.7 158.0,926.2 155.5,925.0 153.1,922.6 147.1,920.2 144.6,919.0 142.2,916.6 138.6,914.1 136.2,903.2 127.7,899.6 124.1,896.0 121.7,891.1 118.0,887.5 115.6,883.9 114.4,883.9 112.0,880.3 112.0,876.6 110.8,874.2 110.8" style="fill:none;stroke:#ffffff;stroke-width:2"/>
<polyline points="284.9 356.4,284.9 358.8,283.7 363.7,283.7 366.1,282.5 370.9,282.5 375.8,281.3 381.8,281.3 384.2,282.5 404.8,282.5 407.2,283.7 413.3,283.7 415.7,284.9 426.6,284.9 430.2,287.4 433.8,287.4 437.5,288.6 441.1,288.6 445.9,289.8 448.4,291.0 453.2,291.0 455.6,292.2 460.5,293.4 462.9,293.4 467.7,294.6 470.1,294.6 473.8,295.8 476.2,298.2 478.6,298.2 482.2,300.7 487.1,301.9 490.7,303.1 493.1,303.1 495.5,305.5 501.6,305.5 504.0,306.7 506.4,310.3 512.5,311.6 514.9,314.0 521.0,315.2 525.8,316.4 528.2,318.8 530.6,320.0 533.1,322.4 536.7,323.7 540.3,324.9 542.7,329.7 550.0,330.9 552.4,334.5 556.0,335.8 558.5,338.2 559.7,339.4 562.1,341.8 565.7,344.2 568.1,349.1 574.2,352.7 575.4,356.3 579.0,357.5 581.5,360.0 582.7,363.6 586.3,366.0 587.5,370.8 591.1,374.5 593.6,380.5 597.2,382.9 599.6,386.6 600.8,392.6 605.7,395.0 606.9,398.7 609.3,402.3 610.5,407.1 612.9,412.0 616.5,414.4 617.8,419.2 619.0,421.7 620.2,424.1 620.2,425.3 622.6,427.7 623.8,430.1 623.8,432.6 625.0,439.8 627.4,443.4 627.4,445.9 628.6,450.7 629.9,454.3 631.1,456.8 631.1,459.2 634.7,461.6 635.9,464.0 635.9,467.6 637.1,472.5 638.3,478.5 640.7,482.2 640.7,485.8 642.0,488.2 642.0,491.8 643.2,494.3 643.2,493.1 645.6,489.4 646.8,487.0 646.8,484.6 648.0,479.7 649.2,473.7 650.4,471.3 650.4,467.6 651.6,465.2 651.6,461.6 652.8,459.2 652.8,461.6 651.6,464.0 651.6,468.9 650.4,471.3 649.2,477.3 646.8,479.7 646.8,482.2 645.6,490.6 640.7,493.1 640.7,496.7 638.3,495.5 635.9,493.1 632.3,491.8 629.9,488.2 626.2,485.8 622.6,482.2 619.0,479.7 615.3,477.3 612.9,476.1 610.5,472.5 609.3" style="fill:none;stroke:#ffffff;stroke-width:2"/>
<polyline points="530.7 589.1,537.5 586.8,543.1 590.8,546.0 596.4,544.3 601.5,540.9 602.6,537.5 603.2,539.2 604.3,541.4 605.5,544.3 606.6,546.5 607.7,548.2 608.9,551.0 611.1,552.2 612.8,553.9 615.1,554.4 617.9,555.6 620.7,555.6 623.5,553.9 625.2,551.6 626.3,549.3 626.3,544.8 626.9,542.0 626.9,538.6 626.3,536.4 626.3,533.5 625.8,531.8 625.2" style="fill:none;stroke:#ffffff;stroke-width:2"/>
<polyline points="573.6 632.0,574.7 620.7,574.7 616.8,575.9 613.9,575.9 610.5,576.4 607.2,577.0 604.3,578.1 600.9,578.7 598.1" style="fill:none;stroke:#ffffff;stroke-width:2"/>
<polyline points="592.2 631.4,592.8 620.1,592.8 617.9,593.9 611.1,593.9 606.6,593.9 602.6" style="fill:none;stroke:#ffffff;stroke-width:2"/>
<polyline points="568.5 591.4,578.1 591.9,581.0 593.0,586.0 593.6,588.9 593.6,592.8 594.7,597.3 595.3,599.6 595.9,603.0 596.4,605.2 597.0,608.6 597.6,609.7 597.6" style="fill:none;stroke:#ffffff;stroke-width:2"/>
<polyline points="524.5 647.8,535.8 648.4,539.2 649.5,543.7 649.5,548.2 650.6,553.9 651.2,562.9 652.3,582.1 655.1,591.1 656.3,619.9 660.2" style="fill:none;stroke:#ffffff;stroke-width:2"/>
<polyline points="568.0 707.1,562.3 699.2,560.6 697.5,556.1 694.7,552.2 691.8,549.9 690.7,548.2 689.0,546.0 688.4,542.6 687.9,540.3 689.0,538.6 690.1,539.7 691.8,543.1 692.4,546.5 692.4,552.7 691.8,555.6 690.1,557.8 689.0,560.6 687.3,562.9 686.2,564.6 685.1,566.8 683.9,568.5 682.8,570.8 680.5,571.9 678.8,573.1 676.6,573.1 673.8,572.5 670.4,570.2 668.7,567.4 668.1,562.9 668.1,561.8 669.8,561.8 673.2,563.5 674.9,566.3 676.0,568.5 677.2,569.1 677.7" style="fill:none;stroke:#ffffff;stroke-width:2"/>
<polyline points="514.9 704.2,507.6 696.3,505.9 694.1,503.6 690.1,503.1 687.3,501.9 685.1,500.2 678.8,499.7 674.9,498.5 671.5,498.0 668.1,498.0 664.7,496.8 661.3,496.8 659.1,498.0 612.2,498.0 609.4,498.5 606.6,499.1 603.2,499.1 600.9,500.2 598.1,500.8 593.6,501.9 589.1,503.6 586.8,505.3 582.9,507.6 578.9,509.3 576.1,510.4 574.4,512.1 572.7,513.8 569.3,516.0 566.5,517.7 564.8,519.4 563.7,521.1 562.0,522.8 561.4" style="fill:none;stroke:#ffffff;stroke-width:2"/>
<polyline points="627.2 722.9,631.8 715.5,633.4 713.3,635.7 707.1,636.8 700.9,637.4 698.0,638.5 694.1,638.5 691.3,639.1 685.6,639.1 682.8,639.7 677.2,639.7 674.3,640.2 668.7,641.4 663.6,641.4 660.2,641.9 652.9,641.9 650.1,641.4 641.0,640.8 638.2,639.7 635.9,639.1 633.7,639.1 631.4,638.5 629.2,637.4 625.2,636.3 621.8,636.3 619.6,635.7 617.3,634.6 613.9,634.0 611.7,633.4 608.9,632.3 604.9,631.2 603.2,630.6 600.9,629.5 599.3,628.4 595.9,627.2 593.0,625.5 590.8,625.0 588.5,623.9 586.3,622.7 584.6,621.6 582.3,620.5 580.6,618.8 578.9,616.5 577.2" style="fill:none;stroke:#ffffff;stroke-width:2"/>
<polyline points="859.8 716.2,863.0 716.2,880.7 714.6,885.5 714.6,911.3 713.0,916.1 713.0,927.4 709.8,932.2 708.2,940.3 706.6,948.3 703.4,962.8 698.5,967.7 693.7,972.5 690.5,975.7 687.3,982.2 677.6,987.0 674.4,990.2 671.1,996.7 666.3,998.3 663.1,1001.5 659.9,1004.7 653.4,1009.5 650.2,1009.5 647.0,1012.8 642.2,1016.0 640.5,1020.8 634.1,1022.4 632.5,1025.7 627.7,1027.3 624.4,1030.5 619.6,1032.1 618.0,1035.3 613.2,1036.9 609.9,1043.4 603.5,1045.0 600.3,1046.6 595.5,1049.8 590.6,1051.4 585.8,1053.0 582.6,1059.5 572.9,1061.1 568.1,1065.9 555.2,1067.5 550.4,1070.7 545.5,1072.4 540.7,1074.0 539.1,1074.0 535.9,1075.6 534.3,1077.2 529.4,1078.8 526.2,1080.4 521.4,1080.4 518.1,1082.0 514.9,1085.2 506.9,1086.9 503.7,1086.9 500.4,1088.5 497.2,1088.5 492.4,1090.1 489.2,1090.1 484.3,1091.7 481.1,1091.7 476.3,1093.3 473.1,1093.3 468.2,1094.9 463.4,1094.9 460.2,1096.5 455.3,1096.5 452.1,1098.1 444.1,1098.1 440.8,1099.7 432.8,1096.5 436.0,1093.3 440.8,1091.7 442.5,1083.6 452.1,1086.9 450.5,1088.5 447.3,1090.1 445.7,1094.9 439.2,1096.5 436.0,1098.1 434.4,1101.3 434.4,1103.0 437.6,1106.2 437.6,1107.8 439.2,1109.4 442.5,1112.6 444.1,1114.2 445.7,1117.5 448.9" style="fill:none;stroke:#ffffff;stroke-width:2"/>
<polyline points="1178.6 426.1,1175.0 427.6,1170.9 430.7,1165.3 435.9,1162.7 438.9,1159.6 443.0,1156.0 448.2,1152.4 453.8,1148.9 461.0,1146.3 466.6,1140.6 478.4,1138.1 484.1,1137.0 488.2,1137.0 493.8,1136.5 497.4,1136.5 503.1,1138.1 511.8,1140.1 519.0,1141.7 522.1,1143.2 524.1,1144.2 527.7,1146.3 531.8,1146.8 533.9,1148.3 535.4,1149.4 537.5,1150.9 539.5,1153.0 541.1,1154.5 542.6,1157.1 544.1,1159.1 546.2,1161.7 547.2,1164.2 548.7,1166.3 550.3" style="fill:none;stroke:#ffffff;stroke-width:2"/>
<polyline points="1207.9 527.7,1206.8 525.7,1204.3 522.6,1201.2 520.0,1199.1 518.0,1195.5 514.9,1191.4 512.3,1186.8 509.2,1183.2 506.7,1177.6 503.6,1174.5 501.0,1168.4 497.9,1165.3 495.4,1160.7 493.8,1158.6 492.8,1156.5 492.8,1154.0 491.8,1153.5 493.8,1153.5 495.9,1155.5 497.4,1157.6 497.4,1162.7 496.9,1164.8 496.4,1167.3 494.4,1174.0 491.3,1178.1 489.2,1183.7 486.7,1187.9 484.6,1200.7 477.4,1202.7 476.4,1204.3 473.8,1205.8 470.2,1205.8 467.2,1205.3 460.0,1203.8 457.9,1201.7 456.4,1198.1 455.4,1194.0 455.4,1183.2 455.9,1179.6 456.4,1178.1 457.9,1178.1 460.0,1180.2 461.0,1182.2 462.5,1184.8 464.1,1186.3 466.1,1190.4 469.2,1192.5 471.3" style="fill:none;stroke:#ffffff;stroke-width:2"/>
<polyline points="1239.2 486.7,1238.1 495.4,1238.1 501.0,1238.1 518.0,1238.1 519.0,1238.7 518.5" style="fill:none;stroke:#ffffff;stroke-width:2"/>
<polyline points="1259.7 483.1,1260.7 491.8,1260.7 493.8,1261.2 500.5,1261.2 504.1,1262.3 510.3,1262.8 514.4,1263.3 516.4" style="fill:none;stroke:#ffffff;stroke-width:2"/>
<polyline points="1218.1 482.6,1220.7 482.6,1222.7 482.0,1234.5 479.5,1239.2 479.0,1254.6 476.9,1263.8 475.9,1269.4 475.9,1276.1 474.9,1279.2 474.9,1281.2 474.9" style="fill:none;stroke:#ffffff;stroke-width:2"/>
<polyline points="1282.3 432.3,1287.9 437.4,1291.5 440.5,1293.6 442.0,1295.6 443.0,1298.2 446.1,1305.4 457.4,1306.4 461.5,1306.9 465.6,1306.9 472.3,1306.4 497.4,1306.4 501.5,1305.4 504.6,1304.9 508.7,1303.8 511.8,1301.8 519.0,1300.2 523.6,1298.7 527.7,1296.1 532.3,1294.6 535.4,1292.5 540.0,1291.0 544.1,1289.5 547.7,1287.9 550.8,1285.9 554.4,1284.3 556.4,1283.8 558.5,1282.8 561.1,1281.8 563.1,1280.7 565.2" style="fill:none;stroke:#ffffff;stroke-width:2"/>
<polyline points="1081.1 369.7,1086.7 369.2,1089.5 369.2,1128.2 371.6,1123.5 374.4,1121.6 375.8,1119.8 376.7,1124.9 375.8,1130.0 373.9,1135.6 372.0,1138.4 370.2,1140.3 369.2,1139.4 366.4,1137.5 364.6,1134.2 361.8,1131.9 359.4,1129.6 357.6,1127.2 356.6,1125.8 355.7" style="fill:none;stroke:#ff5959;stroke-width:2"/>
<polyline points="1144.5 382.3,1146.4 384.2,1153.8 391.2,1156.6 393.0,1159.9 395.4,1162.7 397.2,1164.6 398.6,1166.9 400.5,1168.8 401.4,1171.1 403.3,1173.0 404.7,1174.8 406.6,1176.7 408.4" style="fill:none;stroke:#ff5959;stroke-width:2"/>
<polyline points="1149.2 408.9,1150.6 404.2,1152.9 401.9,1156.6 395.8,1159.0 393.0,1162.7 389.3,1166.0 385.1,1169.2 382.8,1170.6 380.4,1172.5 378.6,1174.8 376.2" style="fill:none;stroke:#ff5959;stroke-width:2"/>
<polyline points="639.3 69.3,640.3 65.2,641.4 59.0,641.4 55.4,641.9 41.6,641.9 36.5,642.9 30.8,642.9 25.7,643.4 21.1,643.4 17.5,643.9 9.3,643.9 6.7,644.5 3.6,642.4 4.6,639.8 6.2,637.8 7.7,634.7 9.8,633.2 11.8,630.6 13.9,629.1 15.9,627.5 17.5,629.6 17.0,632.7 14.4,634.7 10.8,638.3 7.7,639.3 5.7,641.9 3.6,645.0 1.6,646.5 -0.5,648.6 1.6,651.1 5.7,653.2 7.2,654.2 9.8,655.7 11.3,658.8 14.9,659.8 17.0,660.4 19.0,660.9 20.5" style="fill:none;stroke:#61ff6f;stroke-width:2"/>
<polyline points="589.0 99.1,590.1 96.5,592.1 95.5,593.1 92.9,595.7 89.8,597.8 86.2,600.3 83.1,602.4 79.6,604.4 75.5,607.0 71.9,608.5 69.8,610.1 67.2,612.1 63.6,613.2 60.6,614.7 58.0,615.7 56.5" style="fill:none;stroke:#61ff6f;stroke-width:2"/>
<polyline points="602.9 76.0,601.3 72.4,597.2 68.8,594.7 64.7,592.6 62.1,591.6 60.1,591.1 58.5" style="fill:none;stroke:#61ff6f;stroke-width:2"/>
</svg>