<svg version="1.1" xmlns="http://www.w3.org/2000/svg" viewBox="279.5 83.5 778.2 652.0">
<rect x="279.5" y="83.5" width="778.2" height="652.0" fill="#202124" />
<polyline points="625.0 682.0,643.6 681.4,662.2 679.5,680.5 676.3,698.6 671.9,716.3 666.2,733.6 659.4,750.3 651.4,766.5 642.3,781.9 632.1,796.6 620.8,810.5 608.6,823.4 595.5,835.4 581.5,846.4 566.7,856.2 551.2,865.0 535.1,872.6 518.5,878.9 501.3,884.1 483.8,887.9 465.9,890.5 447.8,891.8 429.6,891.8 411.4,890.5 393.2,887.9 375.1,884.1 357.2,878.9 339.7,872.6 322.5,865.0 305.9,856.2 289.8,846.4 274.3,835.4 259.5,823.4 245.5,810.5 232.4,796.6 220.2,781.9 208.9,766.5 198.7,750.3 189.6,733.6 181.6,716.3 174.8,698.6 169.1,680.5 164.7,662.2 161.5,643.6 159.6,625.0 159.0,606.4 159.6,587.8 161.5,569.5 164.7,551.4 169.1,533.7 174.8,516.4 181.6,499.7 189.6,483.5 198.7,468.1 208.9,453.4 220.2,439.5 232.4,426.6 245.5,414.6 259.5,403.6 274.3,393.8 289.8,385.0 305.9,377.4 322.5,371.1 339.7,365.9 357.2,362.1 375.1,359.5 393.2,358.2 411.4,358.2 429.6,359.5 447.8,362.1 465.9,365.9 483.8,371.1 501.3,377.4 518.5,385.0 535.1,393.8 551.2,403.6 566.7,414.6 581.5,426.6 595.5,439.5 608.6,453.4 620.8,468.1 632.1,483.5 642.3,499.7 651.4,516.4 659.4,533.7 666.2,551.4 671.9,569.5 676.3,587.8 679.5,606.4 681.4,625.0 682.0,629.7 682.0" style="fill:none;stroke:#ffffff;stroke-width:2"/>
<polyline points="298.0 413.0,298.0 413.0,407.8 413.8,517.5 414.6,627.3 415.4,737.0 416.2,846.8 417.0,984.0 418.0" style="fill:none;stroke:#ffffff;stroke-width:2"/>
<polyline points="620.0 99.0,620.0 99.0,621.0 198.4,621.9 297.7,622.9 397.1,623.8 496.4,624.8 595.8,626.0 720.0" style="fill:none;stroke:#ffffff;stroke-width:2"/>
<polyline points="626.2 413.6,630.6 409.9,633.0 408.6,633.7 408.0,634.3 407.4,634.9 406.8" style="fill:none;stroke:#5784ff;stroke-width:2"/>
<polyline points="647.9 393.1,653.5 389.4,654.8 388.8,656.0 387.5" style="fill:none;stroke:#5784ff;stroke-width:2"/>
<polyline points="672.2 374.5,678.4 370.1,679.6 368.9,680.2 368.3,681.5 367.6" style="fill:none;stroke:#5784ff;stroke-width:2"/>
<polyline points="695.8 359.0,698.2 355.8,703.8 352.7,708.8 349.6,710.0 348.4" style="fill:none;stroke:#5784ff;stroke-width:2"/>
<polyline points="721.2 339.7,726.2 333.5,729.9 329.1,730.5 328.5" style="fill:none;stroke:#5784ff;stroke-width:2"/>
<polyline points="743.6 314.9,749.2 309.3,749.8 308.7,751.6 308.0,752.3 306.8,753.5 304.9,755.4 304.9" style="fill:none;stroke:#5784ff;stroke-width:2"/>
<polyline points="772.1 291.9,778.3 286.3,779.6 285.7,780.2 285.1" style="fill:none;stroke:#5784ff;stroke-width:2"/>
<polyline points="803.8 264.6,808.1 260.2,808.8 259.6,809.4 259.0,810.6 258.4,811.3 257.7" style="fill:none;stroke:#5784ff;stroke-width:2"/>
<polyline points="819.9 249.0,821.2 249.0,821.8 248.4,822.4 247.2,823.0 246.6" style="fill:none;stroke:#5784ff;stroke-width:2"/>
<polyline points="824.9 232.9,823.7 236.6,823.0 239.1,822.4 245.3,822.4 250.3,822.4 254.6,822.4 255.9" style="fill:none;stroke:#5784ff;stroke-width:2"/>
<polyline points="812.5 247.8,821.8 245.3,834.8 242.2,836.1 241.6,837.3 241.6" style="fill:none;stroke:#5784ff;stroke-width:2"/>
<polyline points="845.4 242.8,847.3 236.0,847.3 233.5,848.5 230.4,849.1 227.3,850.4 221.7,851.6 218.0,852.2 215.5,853.5 213.7,855.3 212.4,858.4 211.2,861.5 210.6,862.8 212.4,864.0 215.5,864.0 218.0,864.7 221.1,864.7 224.2,863.4 236.0,863.4 238.5,862.8 241.0,862.8 243.5,862.8 245.9" style="fill:none;stroke:#5784ff;stroke-width:2"/>
<polyline points="852.2 231.0,861.5 228.6,862.8 228.6,863.4 227.9" style="fill:none;stroke:#5784ff;stroke-width:2"/>
<polyline points="821.8 265.8,822.4 266.4,823.0 267.1,823.0 268.3,823.0 269.5" style="fill:none;stroke:#61ff6f;stroke-width:2"/>
<polyline points="823.0 298.1,823.0 307.4" style="fill:none;stroke:#61ff6f;stroke-width:2"/>
<polyline points="823.0 318.0,823.7 326.7" style="fill:none;stroke:#61ff6f;stroke-width:2"/>
<polyline points="823.7 339.1,823.7 340.3,823.7 341.6,824.3 342.8,824.3 344.0,824.3 345.9,824.3 347.2" style="fill:none;stroke:#61ff6f;stroke-width:2"/>
<polyline points="825.5 358.3,826.2 359.6,826.2 360.8,826.2 362.1,826.2 363.3,826.2 364.5" style="fill:none;stroke:#61ff6f;stroke-width:2"/>
<polyline points="826.8 386.9,826.8 388.1,826.8 389.4,826.8 390.6,826.8 391.9,827.4 392.5" style="fill:none;stroke:#61ff6f;stroke-width:2"/>
<polyline points="828.0 408.6,828.0 410.1,827.3 409.4" style="fill:none;stroke:#61ff6f;stroke-width:2"/>
<polyline points="826.2 372.0,826.2 373.5,825.4 372.7" style="fill:none;stroke:#61ff6f;stroke-width:2"/>
<polyline points="829.3 409.2,829.3 419.8" style="fill:none;stroke:#61ff6f;stroke-width:2"/>
<polyline points="826.4 374.0,826.9 378.0,826.9 378.5,826.9 379.0,826.9 379.6" style="fill:none;stroke:#61ff6f;stroke-width:2"/>
<polyline points="815.2 428.9,814.8 426.6,809.9 427.7,804.4 431.0,802.0 433.6,803.2 436.0,805.4 437.0,808.1 437.3,810.0 436.2,810.5 435.7" style="fill:none;stroke:#61ff6f;stroke-width:2"/>
<polyline points="817.5 437.3,817.9 433.2,819.4 429.6,823.7 432.3,824.8 435.0,824.0 437.0,822.7 438.8,820.6 440.3,818.4 440.6,817.0 439.6" style="fill:none;stroke:#61ff6f;stroke-width:2"/>
<polyline points="835.3 431.3,832.9 431.0,829.8 432.6,828.8 436.0,830.7 437.3,832.6 438.1,834.1 439.6,833.4 441.5,831.6 442.7,829.5 443.6,827.4 444.0,825.4 444.6" style="fill:none;stroke:#61ff6f;stroke-width:2"/>
<polyline points="845.3 450.3,842.9 449.5,841.6 443.0,842.2 435.4,843.3 432.0,845.6 430.2,847.5 429.2,848.8 428.4" style="fill:none;stroke:#61ff6f;stroke-width:2"/>
<polyline points="848.8 436.5,852.1 441.8,855.2 447.3,855.2 447.9,855.2 448.2,855.4 448.5" style="fill:none;stroke:#61ff6f;stroke-width:2"/>
<polyline points="848.5 447.6,852.7 444.2,856.4 438.2,856.7 437.6,856.9 437.3,856.9 437.0" style="fill:none;stroke:#61ff6f;stroke-width:2"/>
<polyline points="860.6 451.8,864.2 449.2,867.0 443.7,867.4 438.2,866.4 435.9,865.8 433.9,864.9 431.8,863.6 430.8" style="fill:none;stroke:#61ff6f;stroke-width:2"/>
<polyline points="811.0 245.7,795.6 246.2,794.7 246.6,793.8 246.6,792.8 246.6" style="fill:none;stroke:#ff5959;stroke-width:2"/>
<polyline points="787.2 247.6,786.8 248.0,785.4 248.0,784.4 248.0,783.5 248.0,783.0 248.5" style="fill:none;stroke:#ff5959;stroke-width:2"/>
<polyline points="776.1 248.5,775.1 248.5,774.2 249.0,772.8 249.0,770.9 249.0,769.5 249.0" style="fill:none;stroke:#ff5959;stroke-width:2"/>
<polyline points="752.3 249.9,745.7 250.8,744.8 250.8,743.9 250.8" style="fill:none;stroke:#ff5959;stroke-width:2"/>
<polyline points="731.7 251.8,723.3 252.2,722.4 252.2,721.5 252.2,720.1 252.2" style="fill:none;stroke:#ff5959;stroke-width:2"/>
<polyline points="710.7 252.2,696.3 252.2,695.3 252.2" style="fill:none;stroke:#ff5959;stroke-width:2"/>
<polyline points="685.1 252.2,676.7 252.7,675.3 252.7" style="fill:none;stroke:#ff5959;stroke-width:2"/>
<polyline points="655.2 253.6,646.8 254.1,645.9 254.1,644.5 254.1,643.6 254.1" style="fill:none;stroke:#ff5959;stroke-width:2"/>
<polyline points="638.0 254.1,636.6 254.1,635.6 254.1,634.7 254.1,633.8 254.1,632.4 254.1,631.4 254.1" style="fill:none;stroke:#ff5959;stroke-width:2"/>
<polyline points="624.0 253.2,617.4 253.2,616.5 253.2" style="fill:none;stroke:#ff5959;stroke-width:2"/>
<polyline points="674.7 378.1,678.7 380.7,682.4 382.8,684.7 384.7,686.3 386.5,688.2 389.4,689.2 391.5,689.5 393.6,690.3 396.3,690.8 398.6,691.3 401.3,691.6 403.6,692.1 406.0,692.4 408.4,692.9 410.5,692.9 412.6,692.9 415.0" style="fill:none;stroke:#5784ff;stroke-width:2"/>
<polyline points="701.6 379.9,707.1 386.8,710.5 392.3,712.6 394.7,713.2 394.7" style="fill:none;stroke:#5784ff;stroke-width:2"/>
<polyline points="701.1 395.2,703.4 392.8,705.8 389.1,708.7 385.2,710.5 382.0,711.6 379.4,712.6 378.1" style="fill:none;stroke:#5784ff;stroke-width:2"/>
<polyline points="621.7 417.5,621.7 419.2,620.8 421.6" style="fill:none;stroke:#5784ff;stroke-width:2"/>
<polyline points="616.7 429.1,615.9 429.9,615.9 431.6,615.1 432.4,614.2 433.2,613.4 434.0" style="fill:none;stroke:#5784ff;stroke-width:2"/>
<polyline points="606.0 445.6,606.0 447.3,605.1 448.1,604.3 448.9,603.5 449.7,602.7 450.6,601.8 451.4" style="fill:none;stroke:#5784ff;stroke-width:2"/>
<polyline points="591.1 464.6,591.1 466.3,589.4 467.1,588.6 468.7,587.0 469.6" style="fill:none;stroke:#5784ff;stroke-width:2"/>
<polyline points="579.5 481.1,574.6 489.4,572.9 489.4,572.1 491.1,571.3 491.9" style="fill:none;stroke:#5784ff;stroke-width:2"/>
<polyline points="566.3 502.6,561.3 509.2,560.5 510.1" style="fill:none;stroke:#5784ff;stroke-width:2"/>
<polyline points="547.3 520.0,541.5 525.8,539.9 526.6,538.2 527.4" style="fill:none;stroke:#5784ff;stroke-width:2"/>
<polyline points="527.5 535.7,521.7 544.0,520.0 544.8,519.2 545.6" style="fill:none;stroke:#5784ff;stroke-width:2"/>
<polyline points="506.8 557.2,506.0 558.8,505.1 559.7,503.5 561.3,502.7 562.1,501.0 563.0" style="fill:none;stroke:#5784ff;stroke-width:2"/>
<polyline points="487.0 573.7,480.3 579.5,479.5 580.3,477.9 581.1" style="fill:none;stroke:#5784ff;stroke-width:2"/>
<polyline points="460.5 596.0,459.7 596.8,458.9 597.7,457.2 598.5,456.4 599.3" style="fill:none;stroke:#5784ff;stroke-width:2"/>
<polyline points="445.6 606.8,444.8 607.6,444.0 609.2,443.2 610.1" style="fill:none;stroke:#5784ff;stroke-width:2"/>
<polyline points="598.8 450.7,595.8 449.1,593.0 447.1,590.5 444.8,589.1 442.6,587.9 440.4,586.7 437.8,585.7 435.9,584.7 433.7,583.7 431.7,582.9 429.5,581.9 427.4,581.0 425.0,580.6 422.6,580.2 420.6,580.0 418.5,580.0 416.3,580.4 415.3" style="fill:none;stroke:#5784ff;stroke-width:2"/>
<polyline points="519.2 434.7,524.0 441.4,526.0 446.0,527.1 447.7,527.3 447.9,527.3 448.5,527.5 448.7" style="fill:none;stroke:#5784ff;stroke-width:2"/>
<polyline points="517.3 446.7,522.2 441.4,527.1 434.9,528.3 432.7,528.7 432.3,528.9 432.1,529.1 431.9" style="fill:none;stroke:#5784ff;stroke-width:2"/>
<polyline points="532.3 441.2,536.6 440.6,541.4 440.4,542.0 440.4,542.4 440.4,542.8 440.4" style="fill:none;stroke:#5784ff;stroke-width:2"/>
<polyline points="539.2 433.5,538.8 442.0,538.6 448.5,538.6 448.9,538.6 449.3,538.6 449.7" style="fill:none;stroke:#5784ff;stroke-width:2"/>
<polyline points="555.4 453.5,555.0 446.7,555.0 440.2,555.0 438.0" style="fill:none;stroke:#5784ff;stroke-width:2"/>
<polyline points="567.3 453.3,567.3 449.5,566.7 444.8,566.7 441.4,566.7 439.2,566.7 438.8,566.7 438.4" style="fill:none;stroke:#5784ff;stroke-width:2"/>
<polyline points="548.9 434.9,556.2 434.9,561.2 435.3,563.9 435.3,567.1 435.5,571.5 436.1,572.6 436.1" style="fill:none;stroke:#5784ff;stroke-width:2"/>
<polyline points="904.5 395.8,906.3 396.8,907.2 398.6,909.0 401.3,911.7 405.8,913.6 408.6,915.4 410.4,918.1 408.6,919.0 406.8,920.8 401.3,923.6 397.7,924.5 395.8,925.4 393.1" style="fill:none;stroke:#ff9500;stroke-width:2"/>
<polyline points="919.0 409.5,917.2 405.8,916.3 402.2,915.4 396.8,915.4 393.1,914.5 385.8,914.5 383.1,912.6 305.8,911.7 302.2,911.7 299.5,910.8 295.8,910.8 292.2,909.9 287.7,908.1 283.1,907.2 279.5,905.4 273.1,904.5 271.3,904.5 267.7,903.6 265.8,902.6 262.2,901.7 259.5,900.8 254.9,899.9 251.3,898.1 248.6,897.2 246.8,896.3 244.0,895.4 240.4,894.5 238.6,893.6 234.9,892.6 232.2,890.8 228.6,888.1 225.8,887.2 222.2,886.3 219.5,884.5 217.7,883.6 214.9,879.9 211.3,878.1 208.6,875.4 207.7,872.6 204.9,871.7 203.1,869.9 202.2,867.2 199.5,863.6 196.8,859.9 194.9,856.3 194.0,854.5 192.2,852.6 191.3,849.9 189.5,848.1 187.7,846.3 186.8,839.0 182.2,837.2 180.4,834.5 178.6,829.0 175.8,826.3 174.0,823.6 173.1,821.7 172.2,818.1 169.5,816.3 168.6,812.6 167.7,810.8 166.8,800.8 162.2,798.1 161.3,793.6 159.5,789.9 158.6,783.6 155.8,779.0 154.9,772.6 154.0,769.9 152.2,763.6 150.4,759.9 149.5,756.3 149.5,752.6 146.8,749.0 145.8,746.3 144.9,741.7 143.1,737.2 142.2,735.4 141.3,731.7 140.4,729.0 138.6,725.4 138.6,721.7 137.7,719.0 136.8,716.3 136.8,713.6 135.8,707.2 134.9,703.6 134.9,689.9 134.0,686.3 134.0,669.9 133.1,667.2 133.1,569.9 134.9,565.4 135.8,560.8 135.8,556.3 137.7,551.7 138.6,542.6 143.1,537.2 143.1,534.5 144.0,528.1 146.8,525.4 146.8,521.7 147.7,519.0 148.6,513.6 149.5,511.7 150.4,508.1 151.3,506.3 152.2,503.6 153.1,500.8 153.1,497.2 155.8,493.6 157.7,489.9 158.6,486.3 160.4,481.7 161.3,477.2 164.0,471.7 164.9,469.0 165.8,465.4 166.8,460.8 169.5,457.2 171.3,452.6 173.1,449.9 174.9,446.3 175.8,443.6 178.6,439.9 179.5,435.4 181.3,432.6 184.0,428.1 185.8,425.4 186.8,422.6 189.5,419.0 191.3,416.3 193.1,414.5 194.0,411.7 195.8,409.9 197.7,407.2 199.5,405.4 201.3,401.7 204.0,399.9 204.9,397.2 208.6,393.6 211.3,390.8 215.8,389.9 217.7,388.1 219.5,386.3 222.2,383.6 225.8,382.6 229.5,380.8 230.4,379.0 232.2,378.1 234.0,377.2 237.7,375.4 240.4,374.5 242.2,373.6 245.8,371.7 248.6,369.9 252.2,368.1 256.8,367.2 260.4,365.4 263.1,364.5 266.8,363.6 269.5,361.7 272.2,360.8 274.0,359.9 277.7,358.1 280.4,356.3 281.3,355.4 284.0,353.6 288.6,352.6 292.2,351.7 294.9,349.9 298.6,348.1 301.3,346.3 304.9,344.5 310.4,342.6 313.1,341.7 314.9,340.8 317.7,340.8 320.4,339.0 323.1,338.1 324.9,335.4 328.6,334.5 330.4,332.6 333.1,331.7 337.7,330.8 339.5,329.0 345.8,328.1 348.6,327.2 350.4,326.3 355.8,326.3 359.5,325.4 362.2,325.4 365.8,324.5 409.5,324.5 413.1,322.6 411.3,321.7 409.5,319.0 405.8,317.2 402.2,315.4 399.5,314.5 396.8,312.6 394.9,311.7 392.2,313.6 394.0,315.4 396.8,317.2 398.6,318.1 401.3,319.0 404.9,319.0 408.6,319.9 411.3,320.8 414.9,322.6 416.8,323.6 414.9,327.2 413.1,329.0 411.3,331.7 407.7,334.5 406.8,337.2 404.9,339.0 404.0,341.7 402.2,343.6 400.4" style="fill:none;stroke:#ff9500;stroke-width:2"/>
<polyline points="952.1 351.3,952.1 327.2,952.9 321.6,952.9 313.6,953.3 301.3,953.3 297.1,953.3 288.6" style="fill:none;stroke:#ff9500;stroke-width:2"/>
<polyline points="997.4 350.5,997.4 336.5,995.7 328.9,995.3 325.0,995.3 322.1,995.3 289.4,995.3 288.6" style="fill:none;stroke:#ff9500;stroke-width:2"/>
<polyline points="929.6 280.9,944.8 280.9,986.8 280.1,992.3 280.1,997.4 279.7,1000.0 279.7,1002.9 279.2,1005.5 279.2,1008.5 279.2" style="fill:none;stroke:#ff9500;stroke-width:2"/>
<polyline points="442.6 602.3,443.6 611.2,444.2 613.1,445.2 620.8,446.5 623.6,446.5 623.0,446.5 622.4" style="fill:none;stroke:#5784ff;stroke-width:2"/>
<polyline points="428.9 614.7,433.7 613.1,436.3 611.5,440.7 609.3,443.3 608.3,446.5 606.7,449.6 604.8,451.6 604.2,454.1 603.6,454.7 603.6" style="fill:none;stroke:#5784ff;stroke-width:2"/>
<polyline points="376.0 681.6,375.1 673.3,376.0 662.8,376.7 659.6,377.3 657.1,378.3 654.5,379.2 651.7,380.2 649.8,381.5 646.9,383.4 643.4,385.3 640.5,387.2 638.6,389.1 637.6,391.7 637.0,394.2 638.6,395.8 639.9,397.1 641.8,398.0 644.7,398.7 646.9,398.7 649.8,398.7 673.7" style="fill:none;stroke:#5784ff;stroke-width:2"/>
<polyline points="378.3 660.9,386.6 660.6,391.7 659.9,395.2 659.0,398.0 658.0" style="fill:none;stroke:#5784ff;stroke-width:2"/>
<polyline points="404.7 638.9,406.6 632.2,406.6 631.6,406.9 631.0,406.9 630.3" style="fill:none;stroke:#5784ff;stroke-width:2"/>
<polyline points="444.2 598.5,444.2 597.3,444.2 596.4,444.2 595.1,444.2 594.3,444.2 593.4" style="fill:none;stroke:#61ff6f;stroke-width:2"/>
<polyline points="444.2 575.6,444.2 568.4,444.2 567.6,444.2 565.9,444.2 564.6,444.7 562.9" style="fill:none;stroke:#61ff6f;stroke-width:2"/>
<polyline points="445.1 551.0,445.1 543.4,445.1 542.5,445.1 540.4,445.1 539.2,445.1 537.0" style="fill:none;stroke:#61ff6f;stroke-width:2"/>
<polyline points="445.1 523.5,445.1 516.3,445.5 515.8,445.5 514.1,445.5 513.3,445.5 511.2" style="fill:none;stroke:#61ff6f;stroke-width:2"/>
<polyline points="447.6 498.0,448.5 490.8,448.9 489.1,448.9 487.4" style="fill:none;stroke:#61ff6f;stroke-width:2"/>
<polyline points="451.4 476.0,451.4 468.8,451.4 467.9" style="fill:none;stroke:#61ff6f;stroke-width:2"/>
<polyline points="451.9 461.5,451.9 463.0,451.1 462.3" style="fill:none;stroke:#61ff6f;stroke-width:2"/>
<polyline points="449.7 447.5,449.7 449.0,449.0 448.3" style="fill:none;stroke:#61ff6f;stroke-width:2"/>
<polyline points="449.7 436.1,450.6 429.7" style="fill:none;stroke:#61ff6f;stroke-width:2"/>
<polyline points="450.6 423.0,450.6 416.2,450.6 414.9,451.0 413.6,451.0 412.8" style="fill:none;stroke:#61ff6f;stroke-width:2"/>
<polyline points="450.2 447.5,451.0 455.2,451.0 456.0,451.0 456.9,451.0 457.7,451.0 458.6" style="fill:none;stroke:#61ff6f;stroke-width:2"/>
<polyline points="419.7 383.0,418.0 381.7,415.0 381.6,409.6 383.7,408.0 387.0,407.6 389.1,408.0 391.3,408.9 393.6,409.8 395.4,411.7 396.1,414.1 396.1,416.2 395.8" style="fill:none;stroke:#61ff6f;stroke-width:2"/>
<polyline points="420.9 393.3,420.7 388.0,422.0 385.5,424.1 385.5,426.1 387.3,426.7 389.5,426.7 391.6,426.1 395.2,424.1 395.8,422.2 394.9,421.3 394.0" style="fill:none;stroke:#61ff6f;stroke-width:2"/>
<polyline points="441.8 386.2,439.3 385.9,436.2 386.1,434.4 387.9,433.5 390.2,434.0 392.5,436.0 393.3,438.4 393.6,439.4 395.6,438.2 397.2,436.0 397.6,433.7 397.0,432.6 396.3" style="fill:none;stroke:#61ff6f;stroke-width:2"/>
<polyline points="461.0 379.0,454.2 379.9,448.6 383.5,444.8 387.5,442.7 391.1,441.8 393.6,441.2 395.8,441.1 397.9,441.1 400.5,442.1 402.2,443.6 403.7,445.6 405.1,447.3 406.2,449.3 406.9,450.8 407.1" style="fill:none;stroke:#61ff6f;stroke-width:2"/>
<polyline points="452.7 389.5,455.4 394.3,457.4 399.7,458.1 401.7,458.1 402.1" style="fill:none;stroke:#61ff6f;stroke-width:2"/>
<polyline points="452.9 399.9,456.9 395.1,458.3 392.2,458.5 391.8" style="fill:none;stroke:#61ff6f;stroke-width:2"/>
<polyline points="466.1 395.8,474.5 396.0,474.9 396.0" style="fill:none;stroke:#61ff6f;stroke-width:2"/>
<polyline points="469.5 391.3,470.0 397.0,470.2 399.6,470.2 399.9" style="fill:none;stroke:#61ff6f;stroke-width:2"/>
<polyline points="478.8 403.5,480.1 395.2,480.4 388.6,480.4 388.2,480.6 388.6" style="fill:none;stroke:#61ff6f;stroke-width:2"/>
<polyline points="486.4 401.5,486.4 394.9,486.4 389.3,486.4 388.9" style="fill:none;stroke:#61ff6f;stroke-width:2"/>
<polyline points="478.1 386.6,483.5 387.0,486.6 387.0,488.5 387.5,488.9 387.5" style="fill:none;stroke:#61ff6f;stroke-width:2"/>
<polyline points="490.3 380.8,492.3 381.7,494.1 385.3,495.2 388.0,495.4 390.7,495.4 393.4,495.0 398.5,494.5 400.5,493.8 402.4,492.9 404.2,492.7 404.6" style="fill:none;stroke:#61ff6f;stroke-width:2"/>
<polyline points="452.6 607.2,462.8 608.4,463.9 608.4,465.6 608.9,466.8 608.9,467.9 608.9" style="fill:none;stroke:#ff5959;stroke-width:2"/>
<polyline points="479.7 608.9,488.2 609.5,496.1 610.1" style="fill:none;stroke:#ff5959;stroke-width:2"/>
<polyline points="508.0 610.1,517.6 608.4,518.7 608.4,520.4 608.4" style="fill:none;stroke:#ff5959;stroke-width:2"/>
<polyline points="541.8 609.5,550.9 610.1,552.0 610.1" style="fill:none;stroke:#ff5959;stroke-width:2"/>
<polyline points="575.1 611.2,583.0 611.8,584.7 611.8,585.9 611.8" style="fill:none;stroke:#ff5959;stroke-width:2"/>
<polyline points="597.2 612.3,598.3 613.4,599.4 613.4,601.1 613.4,602.2 613.4,603.4 613.4" style="fill:none;stroke:#ff5959;stroke-width:2"/>
<polyline points="611.8 613.4,619.2 614.0,626.5 614.0,627.6 614.0,628.8 614.0" style="fill:none;stroke:#ff5959;stroke-width:2"/>
<polyline points="556.1 238.5,552.2 237.5,549.1 238.5,548.8 241.9,548.6 244.2,550.7 245.8,553.2 246.0,555.5 247.1,556.6 248.9,556.5 251.0,554.7 252.7,552.4 253.2,550.6 252.0,549.6 250.1" style="fill:none;stroke:#ff5959;stroke-width:2"/>
<polyline points="564.2 255.5,564.3 252.3,564.6 249.4,564.6 249.1,564.6 248.6,564.6 248.3,564.6 247.9" style="fill:none;stroke:#ff5959;stroke-width:2"/>
<polyline points="565.0 242.7,565.0 244.2,564.2 243.5" style="fill:none;stroke:#ff5959;stroke-width:2"/>
<polyline points="568.6 246.5,568.6 250.2,567.9 254.1,569.9 250.7,572.2 250.9,572.3 253.3,572.3 255.8,572.5 256.3" style="fill:none;stroke:#ff5959;stroke-width:2"/>
<polyline points="580.3 261.8,579.0 256.4,579.8 248.9,580.8 246.6,581.5 244.5,582.6 242.2,584.3 238.8,585.7 236.3,587.4 234.5,589.7 233.5,591.1 233.5" style="fill:none;stroke:#ff5959;stroke-width:2"/>
<polyline points="587.5 246.8,590.8 253.2,592.6 258.9,592.8 259.5,592.9 260.0,593.1 260.4,593.3 260.0" style="fill:none;stroke:#ff5959;stroke-width:2"/>
<polyline points="587.4 258.9,593.4 254.0,596.2 249.1,596.4 248.6,596.4 248.3,596.7 248.3" style="fill:none;stroke:#ff5959;stroke-width:2"/>
<polyline points="600.8 263.8,604.4 256.8,604.7 251.9,604.7 246.0,603.7 239.9,602.2 236.5,601.1 235.0" style="fill:none;stroke:#ff5959;stroke-width:2"/>
<polyline points="633.9 597.8,641.8 597.8,644.9 597.5,645.4 597.5" style="fill:none;stroke:#ff5959;stroke-width:2"/>
<polyline points="659.0 591.3,657.1 589.2,653.7 589.2,651.6 590.8,650.6 594.4,651.6 597.1,653.5 598.5,655.4 599.5,657.6 599.7,660.2 600.7,662.4 601.4,662.6 603.5,660.9 604.7,658.8 605.7,656.6 605.7,653.0 605.9,650.9 606.2,650.6 606.4" style="fill:none;stroke:#ff5959;stroke-width:2"/>
<polyline points="668.6 606.9,668.6 603.5,668.6 600.2" style="fill:none;stroke:#ff5959;stroke-width:2"/>
<polyline points="668.6 595.2,668.6 596.7,667.8 595.9" style="fill:none;stroke:#ff5959;stroke-width:2"/>
<polyline points="673.4 598.0,673.4 602.3,672.9 606.4,673.8 603.5,675.0 601.1,676.7 599.9,679.1 600.2,679.8 602.1,679.8 604.5,680.1 607.1,680.5 607.8" style="fill:none;stroke:#ff5959;stroke-width:2"/>
<polyline points="687.7 611.9,686.1 607.8,685.1 601.6,688.4 595.2,689.6 592.5,691.1 590.6,693.2 589.4,695.9 589.2,698.0 588.2,698.3 588.0" style="fill:none;stroke:#ff5959;stroke-width:2"/>
<polyline points="698.0 598.0,700.7 601.9,703.3 606.9,703.3 607.4,703.5 607.8,703.8 608.3,704.0 608.6" style="fill:none;stroke:#ff5959;stroke-width:2"/>
<polyline points="695.9 608.8,698.5 606.2,701.6 602.3,704.5 598.5,704.7 598.0,705.0 597.8" style="fill:none;stroke:#ff5959;stroke-width:2"/>
<polyline points="712.4 615.0,714.8 609.0,715.5 605.7,715.7 601.4,715.7 598.5,714.8 593.0,713.8 591.1,712.9 588.7,711.9 586.8,710.9 584.6,710.0 582.7,709.5 581.5" style="fill:none;stroke:#ff5959;stroke-width:2"/>
<polyline points="725.0 607.0,732.5 607.0,733.1 607.0,733.7 607.0" style="fill:none;stroke:#ff5959;stroke-width:2"/>
<polyline points="725.3 602.1,733.4 602.1,734.2 602.1,734.8 602.1,735.4 602.1,736.0 602.1" style="fill:none;stroke:#ff5959;stroke-width:2"/>
<polyline points="757.4 593.1,751.9 593.7,749.0 598.3,750.2 601.0,753.1 601.8,755.1 602.1,757.1 602.7,759.2 603.9,760.9 605.3,761.5 607.6,759.7 609.1,757.4 609.1,750.2 609.4" style="fill:none;stroke:#ff5959;stroke-width:2"/>
<polyline points="766.4 610.5,767.0 605.9,767.0 605.3,767.0 604.4,767.0 603.6,767.0 603.0" style="fill:none;stroke:#ff5959;stroke-width:2"/>
<polyline points="767.8 596.9,767.8 598.4,767.1 597.7" style="fill:none;stroke:#ff5959;stroke-width:2"/>
<polyline points="772.2 602.4,772.2 607.6,771.0 612.8,772.2 608.2,773.1 605.0,774.5 602.7,776.5 602.4,777.1 604.7,777.7 606.7,777.7 609.1,778.3 611.1" style="fill:none;stroke:#ff5959;stroke-width:2"/>
<polyline points="788.7 617.2,785.8 610.8,785.8 608.8,787.2 594.9,789.9 591.1,792.2 589.9,794.8 588.2,796.8 587.1,797.7 586.8" style="fill:none;stroke:#ff5959;stroke-width:2"/>
<polyline points="796.2 599.8,800.6 604.4,803.2 607.6,803.5 607.9,803.8 608.2,804.0 608.5,804.3 608.8" style="fill:none;stroke:#ff5959;stroke-width:2"/>
<polyline points="798.3 607.9,802.6 601.8,802.9 601.5,803.2 601.2,803.5 600.7,803.8 600.1" style="fill:none;stroke:#ff5959;stroke-width:2"/>
<polyline points="811.3 603.3,816.5 603.3,817.4 603.3,818.0 603.3,818.5 603.3,819.1 603.3" style="fill:none;stroke:#ff5959;stroke-width:2"/>
<polyline points="815.1 597.8,815.1 605.0,815.1 605.9,815.1 607.3,815.1 607.9,815.1 608.5" style="fill:none;stroke:#ff5959;stroke-width:2"/>
<polyline points="827.5 610.5,829.0 603.3,829.0 598.6" style="fill:none;stroke:#ff5959;stroke-width:2"/>
<polyline points="837.1 611.1,837.7 602.1,836.8 598.1" style="fill:none;stroke:#ff5959;stroke-width:2"/>
<polyline points="824.3 597.2,832.1 597.8,837.4 597.8,840.0 598.1,840.5 598.1,841.1 598.1,841.7 598.1" style="fill:none;stroke:#ff5959;stroke-width:2"/>
<polyline points="842.3 587.1,846.9 588.5,850.1 590.8,851.8 592.6,852.7 594.6,853.3 596.9,853.6 599.2,853.9 602.1,853.9 605.0,853.3 610.2,852.7 612.3,852.4 614.3,851.8 616.3,851.0 618.3,849.5 620.1,848.1 621.5,846.3 622.4" style="fill:none;stroke:#ff5959;stroke-width:2"/>
<polyline points="940.3 369.8,940.3 374.1,940.1 380.3,939.7 384.8,939.1 387.7,938.3 389.7,938.5 387.3,939.1 385.4,939.9 383.5,941.8 382.7,944.0 382.2,945.5 383.8,945.3 386.1,945.3 388.3,945.8 390.3" style="fill:none;stroke:#ff9500;stroke-width:2"/>
<polyline points="953.1 389.4,952.7 386.9,953.9 383.9,955.8 382.5,958.1 383.4,959.4 385.7,959.4 387.9,957.7 389.5,955.1 389.5,953.0 388.9,952.0 388.2" style="fill:none;stroke:#ff9500;stroke-width:2"/>
<polyline points="960.6 381.2,960.5 386.4,961.4 391.8,961.5 392.5,961.7 392.9,961.8 393.1,961.9 393.4" style="fill:none;stroke:#ff9500;stroke-width:2"/>
<polyline points="967.5 373.2,967.2 381.5,967.4 392.3,967.2 395.8,967.3 395.6,967.3 395.4,967.3 395.1" style="fill:none;stroke:#ff9500;stroke-width:2"/>
<polyline points="972.9 394.8,973.1 391.8,974.2 383.9,976.2 379.4,978.3 378.3,979.5 378.7,979.7 378.7" style="fill:none;stroke:#ff9500;stroke-width:2"/>
<polyline points="971.9 387.5,976.6 387.5,979.1 387.3,979.2 387.2" style="fill:none;stroke:#ff9500;stroke-width:2"/>
<polyline points="998.2 385.7,995.7 383.8,993.8 384.6,991.6 387.2,990.4 390.1,990.6 393.6,991.9 395.6,993.8 396.8,995.8 396.6,996.9 395.8" style="fill:none;stroke:#ff9500;stroke-width:2"/>
<polyline points="1002.5 396.6,1002.7 392.6,1002.9 392.0,1002.9 391.8,1002.9 391.6,1002.9 391.4" style="fill:none;stroke:#ff9500;stroke-width:2"/>
<polyline points="1003.5 386.0,1003.5 387.5,1002.8 386.8" style="fill:none;stroke:#ff9500;stroke-width:2"/>
<polyline points="1008.6 383.5,1008.5 388.5,1009.6 396.4,1009.7 399.9,1009.6 397.5,1009.6 395.4,1009.7 393.4,1010.1 391.2,1011.2 389.5,1012.7 390.4" style="fill:none;stroke:#ff9500;stroke-width:2"/>
<polyline points="1020.2 391.1,1016.3 392.4,1014.9 396.5,1015.7 399.0,1018.1 399.0,1019.6 398.3,1019.8 398.2" style="fill:none;stroke:#ff9500;stroke-width:2"/>
<polyline points="1026.3 378.0,1026.3 381.9,1025.8 398.4,1025.7 398.7,1025.7 399.1,1025.7 399.4,1025.7 399.6" style="fill:none;stroke:#ff9500;stroke-width:2"/>
<polyline points="1030.9 392.6,1032.9 394.2,1036.5 394.5,1039.1 393.1,1038.9 391.1,1036.5 390.3,1034.2 391.0,1032.3 392.4,1031.4 394.5,1031.2 396.7,1031.2 398.8,1032.7 400.4,1035.2 400.6,1037.4 400.6,1037.8 400.2" style="fill:none;stroke:#ff9500;stroke-width:2"/>
</svg>
